<svg xmlns="http://www.w3.org/2000/svg" xmlns:xlink="http://www.w3.org/1999/xlink" width="727" height="615" viewBox="0 0 727 615">
  <defs>
    <clipPath id="clip-MMSI3">
      <rect width="727" height="615"/>
    </clipPath>
  </defs>
  <g id="MMSI3" clip-path="url(#clip-MMSI3)">
    <g id="MMSI-Logo_large-neu" transform="translate(-3051.536 -1170.984)">
      <path id="Pfad_1" data-name="Pfad 1" d="M3124.48,1547.527l-14.921-43.436h-.332l-15.417,43.436Zm-1.492-72.611,44.262,118.367h-27.021l-8.952-26.359h-44.264l-9.285,26.359h-26.192l44.761-118.367h26.691Zm80.4,0,49.4,79.409h.333v-79.409h24.368v118.367h-26.021l-49.238-79.247h-.333v79.247h-24.368V1474.916h25.859Zm146.221,96.483a33.392,33.392,0,0,0,10.942-1.824,24.047,24.047,0,0,0,9.448-6.051,30.38,30.38,0,0,0,6.631-11.024,48.494,48.494,0,0,0,2.487-16.578,68.987,68.987,0,0,0-1.74-16.164,32.283,32.283,0,0,0-5.72-12.352,25.389,25.389,0,0,0-10.525-7.87q-6.553-2.736-16.164-2.739H3326.4v74.6l23.209,0Zm1.824-96.483a61.033,61.033,0,0,1,21.3,3.646,46.306,46.306,0,0,1,17.074,10.942,50.557,50.557,0,0,1,11.276,18.232q4.061,10.941,4.063,25.7a81.994,81.994,0,0,1-3.316,23.872,52.573,52.573,0,0,1-10.029,18.9,47.018,47.018,0,0,1-16.744,12.518q-10.035,4.562-23.624,4.559h-51.062V1474.916h51.062Zm143.9,118.367H3469.3V1474.916h26.029Zm39.618-96.224a10.283,10.283,0,0,0,4.077-.691q1.589-.688,1.588-3.316a2.913,2.913,0,0,0-.552-1.864,3.67,3.67,0,0,0-1.417-1.07,7.093,7.093,0,0,0-1.934-.52,16.123,16.123,0,0,0-2.037-.138h-4.835v7.6h5.11Zm.07-12.087q5.455,0,8.392,1.934t2.936,6.631a8.929,8.929,0,0,1-.588,3.419,6.1,6.1,0,0,1-1.623,2.313,7.342,7.342,0,0,1-2.419,1.382,12.062,12.062,0,0,1-2.969.623l7.738,12.64h-6.011l-7.046-12.363h-3.592v12.363h-5.732v-28.942h10.914Zm-18.582,22.657a20.142,20.142,0,0,0,4.149,6.458,18.6,18.6,0,0,0,6.182,4.248,19.75,19.75,0,0,0,15.2,0,18.631,18.631,0,0,0,6.184-4.248,20.668,20.668,0,0,0,4.177-6.458,20.97,20.97,0,0,0,1.555-8.151,20.7,20.7,0,0,0-1.555-8.116,20.355,20.355,0,0,0-4.177-6.39,19.135,19.135,0,0,0-13.752-5.736,19.258,19.258,0,0,0-7.633,1.52,18.894,18.894,0,0,0-6.182,4.215,19.838,19.838,0,0,0-4.144,6.39,21.122,21.122,0,0,0-1.52,8.116,21.378,21.378,0,0,0,1.52,8.151m-6.39-18.792a24.846,24.846,0,0,1,5.838-8.116,26.219,26.219,0,0,1,8.462-5.182,28.5,28.5,0,0,1,20.1,0,26.272,26.272,0,0,1,8.462,5.182,24.854,24.854,0,0,1,5.837,8.116,25.512,25.512,0,0,1-14.3,34.681,28.956,28.956,0,0,1-20.1,0,26.089,26.089,0,0,1-14.3-34.681"/>
      <path id="Pfad_2" data-name="Pfad 2" d="M3100.607,1322.949l27.686,81.4h.33l26.193-81.4h36.636v118.367h-24.366v-83.882h-.332l-29.013,83.882h-20.06l-29.011-83.056h-.33v83.057h-24.371V1322.949h36.638Zm100.96,0h29.178l27.684,46.751,27.52-46.751h29.012l-43.932,72.944v45.423H3245v-46.082l-43.436-72.285Zm187.192,89.185a18.767,18.767,0,0,0,5.72,6.716,24.728,24.728,0,0,0,8.371,3.812,39.594,39.594,0,0,0,9.947,1.243,51.6,51.6,0,0,0,7.46-.581,25.843,25.843,0,0,0,7.46-2.236,16.285,16.285,0,0,0,5.8-4.559,11.441,11.441,0,0,0,2.32-7.378,10.392,10.392,0,0,0-3.065-7.793,24.388,24.388,0,0,0-8.041-4.973,80.023,80.023,0,0,0-11.275-3.48q-6.3-1.492-12.764-3.316a113.046,113.046,0,0,1-12.928-4.055,44.325,44.325,0,0,1-11.272-6.217,29.267,29.267,0,0,1-8.041-9.532,28.922,28.922,0,0,1-3.067-13.843,31,31,0,0,1,3.9-15.831,35.259,35.259,0,0,1,10.2-11.19,44.445,44.445,0,0,1,14.248-6.634,60.748,60.748,0,0,1,15.916-2.153,75.431,75.431,0,0,1,17.821,2.068,44.537,44.537,0,0,1,15.168,6.716,33.965,33.965,0,0,1,10.528,11.853q3.9,7.211,3.9,17.489h-25.2a20.936,20.936,0,0,0-2.238-8.785,14.661,14.661,0,0,0-5.055-5.47,21.429,21.429,0,0,0-7.212-2.819,44.38,44.38,0,0,0-8.87-.829,30.592,30.592,0,0,0-6.3.663,16.907,16.907,0,0,0-5.72,2.32,14.381,14.381,0,0,0-4.226,4.145,11.136,11.136,0,0,0-1.658,6.3,10.621,10.621,0,0,0,1.325,5.636q1.328,2.157,5.224,3.978a66.343,66.343,0,0,0,10.776,3.648q6.877,1.826,17.985,4.641,3.316.664,9.2,2.4a44.036,44.036,0,0,1,11.687,5.554,35.348,35.348,0,0,1,10.031,10.2q4.225,6.383,4.226,16.33a36.2,36.2,0,0,1-3.149,15.084,32.759,32.759,0,0,1-9.366,12.019,44.982,44.982,0,0,1-15.419,7.875,72.938,72.938,0,0,1-21.3,2.819,74.793,74.793,0,0,1-18.98-2.4,47.635,47.635,0,0,1-16.248-7.542,37.244,37.244,0,0,1-11.19-13.1q-4.144-7.959-3.978-18.9h25.2a21.685,21.685,0,0,0,2.149,10.107m148.207-16.574-14.92-43.433h-.33L3506.3,1395.56Zm-1.494-72.611,44.264,118.367h-27.02l-8.954-26.359H3499.5l-9.283,26.359h-26.193l44.761-118.367h26.688Zm137.764,0v21.885h-57.194v27.353h49.568v20.224h-49.568v48.905h-26.026V1322.949h83.22Zm103.61,0v21.885h-62.5V1370.2h57.361v20.226h-57.36v29.011h63.826v21.882h-89.857V1322.949Z"/>
      <path id="Pfad_4" data-name="Pfad 4" d="M3213.824,1170.984v118H3303.4v-21.815h-63.627v-28.924h57.182v-20.161h-57.182V1192.8h62.3v-21.816Zm-59.329,0-26.111,81.143h-.329l-27.6-81.143h-36.521v118h24.295v-82.8h.329l28.921,82.8h20l28.919-83.626h.331v83.626h24.292v-118h-36.523Z"/>
      <path id="Pfad_49" data-name="Pfad 49" d="M3072.39,1699.465H3060.6v-5.435H3072a19.385,19.385,0,0,0,9.892-2.292,14.131,14.131,0,0,0,5.857-6.564,24.6,24.6,0,0,0,1.932-10.2,24.28,24.28,0,0,0-1.916-10.083,14.233,14.233,0,0,0-5.7-6.5,18.117,18.117,0,0,0-9.473-2.275h-12.247v-5.435h12.67a24.052,24.052,0,0,1,12.2,2.914,19.269,19.269,0,0,1,7.76,8.365,32.874,32.874,0,0,1-.02,26.127,19.293,19.293,0,0,1-7.923,8.431A25.291,25.291,0,0,1,3072.39,1699.465Zm-9.035-48.784v48.784H3057.2v-48.784Zm47.9,0v48.784H3105.1v-48.784Zm31.365,49.471a20.461,20.461,0,0,1-19.153-11.8,29.506,29.506,0,0,1-2.783-13.244,29.8,29.8,0,0,1,2.766-13.308,21.019,21.019,0,0,1,7.661-8.709,20.535,20.535,0,0,1,11.214-3.094,22.057,22.057,0,0,1,7.236,1.162,19.7,19.7,0,0,1,6.029,3.307,19.2,19.2,0,0,1,4.42,5.091,18.813,18.813,0,0,1,2.39,6.515h-6.286a16.481,16.481,0,0,0-1.981-4.273,13.5,13.5,0,0,0-3.012-3.274,13.259,13.259,0,0,0-3.962-2.1,15.189,15.189,0,0,0-4.829-.737,14.388,14.388,0,0,0-7.956,2.275,15.569,15.569,0,0,0-5.6,6.614,24.364,24.364,0,0,0-2.063,10.526,23.922,23.922,0,0,0,2.079,10.45,15.132,15.132,0,0,0,21.134,7.138,12.739,12.739,0,0,0,4.993-5.009,15.35,15.35,0,0,0,1.817-7.629l1.866.327h-14.54v-5.4h18.7v5.3a20.306,20.306,0,0,1-2.619,10.461,18.3,18.3,0,0,1-7.154,6.941,21.293,21.293,0,0,1-10.362,2.476Zm35.916-49.471v48.784h-6.155v-48.784Zm8.513,5.435v-5.435h37.062v5.435H3208.69v43.349h-6.155v-43.349Zm35.491,43.348,17.778-48.783h7.072l17.909,48.783h-6.483l-10.313-29.04q-.983-2.75-2.243-6.7t-3.061-10.129h1.277q-1.8,6.22-3.094,10.231t-2.177,6.6l-10.15,29.041-6.515,0Zm9-13.62v-5.4h24.785v5.4Zm40.893,13.62v-48.783h6.157v43.349h22.787v5.435h-28.944Zm55.855,0v-48.783h17.352a18.409,18.409,0,0,1,8.431,1.719,11.9,11.9,0,0,1,5.042,4.633,12.9,12.9,0,0,1,1.69,6.581,10.9,10.9,0,0,1-1.08,5.124,9.076,9.076,0,0,1-2.881,3.29,13.963,13.963,0,0,1-4.027,1.9v.393a10.259,10.259,0,0,1,4.682,1.621,11.243,11.243,0,0,1,3.749,4.027,12.571,12.571,0,0,1,1.49,6.335,13.128,13.128,0,0,1-1.735,6.761,11.84,11.84,0,0,1-5.4,4.682,22.4,22.4,0,0,1-9.462,1.719l-17.851,0Zm6.155-5.435H3346q5.664,0,8.2-2.177a6.993,6.993,0,0,0,2.537-5.55,8.478,8.478,0,0,0-1.261-4.535,8.848,8.848,0,0,0-3.585-3.241,12.04,12.04,0,0,0-5.566-1.2h-11.878l0,16.7Zm0-21.936h11a11.115,11.115,0,0,0,4.847-1.019,8.088,8.088,0,0,0,3.356-2.881,7.8,7.8,0,0,0,1.231-4.383,7.3,7.3,0,0,0-2.292-5.5q-2.3-2.195-6.974-2.194h-11.164l0,15.977Zm56.477,28.157a21.3,21.3,0,0,1-10.03-2.259,16.529,16.529,0,0,1-6.663-6.188,17.03,17.03,0,0,1-2.357-8.938v-32.184h6.155v31.693a12.549,12.549,0,0,0,1.555,6.286,11.033,11.033,0,0,0,4.453,4.322,14.329,14.329,0,0,0,6.925,1.572,14.038,14.038,0,0,0,6.876-1.588,11.09,11.09,0,0,0,4.42-4.322,12.564,12.564,0,0,0,1.536-6.27v-31.693h6.155v32.184a17.03,17.03,0,0,1-2.357,8.938,16.583,16.583,0,0,1-6.63,6.188,21.178,21.178,0,0,1-10.034,2.259Zm46,.065a22.354,22.354,0,0,1-9.282-1.784,14.482,14.482,0,0,1-6.139-4.977,14.331,14.331,0,0,1-2.423-7.514h6.286a8.44,8.44,0,0,0,1.768,4.862,9.47,9.47,0,0,0,4.142,2.914,15.921,15.921,0,0,0,5.648.966,15.725,15.725,0,0,0,6.008-1.08,9.91,9.91,0,0,0,4.162-3.028,7.151,7.151,0,0,0,1.522-4.535,5.7,5.7,0,0,0-1.244-3.782,9.394,9.394,0,0,0-3.421-2.472,32.769,32.769,0,0,0-4.993-1.735l-5.8-1.6q-6.253-1.7-9.527-4.8a10.479,10.479,0,0,1-3.269-7.976,12.21,12.21,0,0,1,2.194-7.252,14.471,14.471,0,0,1,5.992-4.813,20.589,20.589,0,0,1,8.578-1.719,20.111,20.111,0,0,1,8.594,1.735,14.361,14.361,0,0,1,5.844,4.78,12.586,12.586,0,0,1,2.259,6.945h-6.029a7.846,7.846,0,0,0-3.372-5.893,12.722,12.722,0,0,0-7.5-2.1,13.683,13.683,0,0,0-5.528,1.052,8.952,8.952,0,0,0-3.716,2.848,6.777,6.777,0,0,0-1.325,4.126,5.429,5.429,0,0,0,1.457,3.912,10.7,10.7,0,0,0,3.634,2.439,34.761,34.761,0,0,0,4.338,1.506l5.012,1.343a35.265,35.265,0,0,1,4.745,1.591,20.629,20.629,0,0,1,4.485,2.537,12,12,0,0,1,3.34,3.831,11.134,11.134,0,0,1,1.277,5.5,12.928,12.928,0,0,1-2.112,7.268,14.276,14.276,0,0,1-6.073,5.058,22.386,22.386,0,0,1-9.527,1.848h0Zm33.07-49.634v48.784h-6.155v-48.784Zm11.328,48.783v-48.783h7.2l19.912,31.333q.753,1.146,1.833,3t2.341,4.142q1.26,2.292,2.472,4.846l-.819.262q-.23-2.587-.344-5.108t-.147-4.666q-.033-2.145-.033-3.52v-30.289h6.122v48.784h-7.265l-17.715-27.863q-1.113-1.768-2.341-3.8t-2.815-4.81q-1.589-2.782-3.814-6.712l1.048-.36q.163,3.667.278,6.728t.18,5.32q.064,2.259.065,3.569v27.928h-6.158Zm49.864,0v-48.783h30.154v5.435h-24v15.912h22.329v5.468H3537.34v16.534h24.228v5.435h-30.386Zm55.692.851a22.354,22.354,0,0,1-9.282-1.784,14.482,14.482,0,0,1-6.139-4.977,14.331,14.331,0,0,1-2.423-7.514h6.286a8.44,8.44,0,0,0,1.768,4.862,9.47,9.47,0,0,0,4.142,2.914,15.921,15.921,0,0,0,5.648.966,15.725,15.725,0,0,0,6.008-1.08,9.9,9.9,0,0,0,4.158-3.029,7.151,7.151,0,0,0,1.522-4.535,5.7,5.7,0,0,0-1.244-3.782,9.394,9.394,0,0,0-3.421-2.472,32.769,32.769,0,0,0-4.993-1.735l-5.8-1.6q-6.253-1.7-9.528-4.8a10.477,10.477,0,0,1-3.266-7.975,12.21,12.21,0,0,1,2.194-7.252,14.471,14.471,0,0,1,5.992-4.813,20.589,20.589,0,0,1,8.578-1.719,20.111,20.111,0,0,1,8.594,1.735,14.367,14.367,0,0,1,5.844,4.78,12.592,12.592,0,0,1,2.258,6.945h-6.024a7.846,7.846,0,0,0-3.372-5.893,12.722,12.722,0,0,0-7.5-2.1,13.689,13.689,0,0,0-5.533,1.048,8.952,8.952,0,0,0-3.716,2.848,6.774,6.774,0,0,0-1.324,4.13,5.429,5.429,0,0,0,1.457,3.912,10.691,10.691,0,0,0,3.632,2.44,34.761,34.761,0,0,0,4.338,1.506l5.009,1.342a35.027,35.027,0,0,1,4.753,1.591,20.629,20.629,0,0,1,4.485,2.537,12,12,0,0,1,3.34,3.831,11.134,11.134,0,0,1,1.277,5.5,12.928,12.928,0,0,1-2.112,7.268,14.276,14.276,0,0,1-6.073,5.058,22.375,22.375,0,0,1-9.531,1.848h0Zm42.628,0a22.354,22.354,0,0,1-9.282-1.784,14.482,14.482,0,0,1-6.139-4.977,14.331,14.331,0,0,1-2.423-7.514h6.286a8.44,8.44,0,0,0,1.768,4.862,9.47,9.47,0,0,0,4.142,2.914,15.921,15.921,0,0,0,5.648.966,15.725,15.725,0,0,0,6.008-1.08,9.908,9.908,0,0,0,4.16-3.028,7.151,7.151,0,0,0,1.522-4.535,5.7,5.7,0,0,0-1.244-3.782,9.394,9.394,0,0,0-3.421-2.472,32.769,32.769,0,0,0-4.993-1.735l-5.8-1.6q-6.253-1.7-9.528-4.8a10.48,10.48,0,0,1-3.268-7.976,12.21,12.21,0,0,1,2.194-7.252,14.471,14.471,0,0,1,5.992-4.813,20.589,20.589,0,0,1,8.578-1.719,20.111,20.111,0,0,1,8.594,1.735,14.367,14.367,0,0,1,5.844,4.78,12.586,12.586,0,0,1,2.259,6.945h-6.024a7.846,7.846,0,0,0-3.372-5.893,12.722,12.722,0,0,0-7.5-2.1,13.689,13.689,0,0,0-5.533,1.048,8.952,8.952,0,0,0-3.716,2.848,6.774,6.774,0,0,0-1.325,4.13,5.429,5.429,0,0,0,1.461,3.912,10.7,10.7,0,0,0,3.634,2.439,34.761,34.761,0,0,0,4.338,1.506l5.009,1.342a35.042,35.042,0,0,1,4.744,1.592,20.589,20.589,0,0,1,4.485,2.537,12,12,0,0,1,3.34,3.831,11.134,11.134,0,0,1,1.277,5.5,12.928,12.928,0,0,1-2.112,7.268,14.276,14.276,0,0,1-6.073,5.058,22.386,22.386,0,0,1-9.527,1.848h0Zm-552.363,85.516a20.481,20.481,0,0,1-19.039-11.787,32.916,32.916,0,0,1,0-26.57,21.112,21.112,0,0,1,7.743-8.709,20.85,20.85,0,0,1,11.3-3.094,22.229,22.229,0,0,1,7.039,1.1,19.147,19.147,0,0,1,5.942,3.192,18.2,18.2,0,0,1,4.387,5.075,19.925,19.925,0,0,1,2.406,6.777h-6.191a12.843,12.843,0,0,0-1.784-4.485,12.458,12.458,0,0,0-3.094-3.274,13.368,13.368,0,0,0-4.043-2.014,15.994,15.994,0,0,0-4.666-.671,14.781,14.781,0,0,0-8.136,2.292,15.449,15.449,0,0,0-5.631,6.63,24.445,24.445,0,0,0-2.047,10.491,24.2,24.2,0,0,0,2.065,10.461,15.439,15.439,0,0,0,5.648,6.614,14.8,14.8,0,0,0,8.1,2.275,15.632,15.632,0,0,0,4.666-.688,13.682,13.682,0,0,0,4.027-2.014,12.566,12.566,0,0,0,3.094-3.258,13.135,13.135,0,0,0,1.833-4.453h6.155a18.8,18.8,0,0,1-12.7,15,22.042,22.042,0,0,1-7.074,1.11Zm48.783,0a20.731,20.731,0,0,1-11.214-3.078,21.137,21.137,0,0,1-7.743-8.709,32.711,32.711,0,0,1,0-26.553,21.247,21.247,0,0,1,7.743-8.725,21.869,21.869,0,0,1,22.427,0,21.331,21.331,0,0,1,7.71,8.725,32.706,32.706,0,0,1,0,26.553,21.21,21.21,0,0,1-7.71,8.709,20.616,20.616,0,0,1-11.214,3.078Zm0-5.7a14.646,14.646,0,0,0,7.94-2.226,15.519,15.519,0,0,0,5.664-6.548,27.648,27.648,0,0,0,0-21.2,15.5,15.5,0,0,0-5.664-6.564,15.252,15.252,0,0,0-15.9.016,15.6,15.6,0,0,0-5.672,6.562,27.531,27.531,0,0,0,0,21.169,15.616,15.616,0,0,0,5.68,6.548,14.647,14.647,0,0,0,7.952,2.243v0Zm31.169,5.009v-48.78h7.2l19.906,31.333q.753,1.146,1.833,3t2.341,4.142q1.26,2.292,2.472,4.846l-.819.262q-.23-2.587-.344-5.108t-.147-4.666q-.033-2.145-.033-3.52V1736.36h6.122v48.783h-7.268l-17.707-27.862q-1.113-1.768-2.341-3.8t-2.815-4.807q-1.589-2.782-3.814-6.712l1.048-.36q.163,3.667.278,6.728t.18,5.32q.064,2.259.065,3.569v27.928l-6.156-.007Zm47.048-43.348v-5.432H3241.2v5.435h-15.42v43.348h-6.155V1741.8Zm51.73-5.435v48.783h-6.155v-48.78l6.155,0Zm11.328,48.783v-48.78h7.2l19.906,31.333q.753,1.146,1.833,3t2.341,4.142q1.26,2.292,2.472,4.846l-.819.262q-.23-2.587-.344-5.108t-.147-4.666q-.033-2.145-.033-3.52V1736.36h6.122v48.783h-7.268l-17.708-27.862q-1.113-1.768-2.341-3.8t-2.815-4.807q-1.589-2.782-3.814-6.712l1.048-.36q.163,3.667.278,6.728t.18,5.32q.064,2.259.065,3.569v27.928l-6.156-.007Zm68.853.786a21.306,21.306,0,0,1-10.035-2.259,16.529,16.529,0,0,1-6.663-6.188,17.03,17.03,0,0,1-2.357-8.938V1736.36h6.155v31.693a12.549,12.549,0,0,0,1.555,6.286,11.033,11.033,0,0,0,4.453,4.322,14.329,14.329,0,0,0,6.925,1.572,14.038,14.038,0,0,0,6.876-1.588,11.09,11.09,0,0,0,4.42-4.322,12.557,12.557,0,0,0,1.539-6.27V1736.36h6.155v32.184a17.03,17.03,0,0,1-2.357,8.938,16.583,16.583,0,0,1-6.63,6.188,21.179,21.179,0,0,1-10.035,2.259v0Zm36.44-49.566v48.783h-6.155V1736.36ZM3381,1741.8v-5.435h37.062v5.435h-15.42v43.348h-6.155V1741.8Zm60.341,43.348v-20L3423.4,1736.36h7.1l9.691,15.748q1.6,2.587,2.9,4.993a56.211,56.211,0,0,1,2.636,5.779h-2.488a55.349,55.349,0,0,1,2.636-5.861q1.293-2.422,2.8-4.911l9.658-15.748h7.1l-17.936,28.779v20l-6.156,0Z"/>
    </g>
  </g>
</svg>
