<svg xmlns="http://www.w3.org/2000/svg" xmlns:xlink="http://www.w3.org/1999/xlink" width="48" height="48" viewBox="0 0 48 48">
  <defs>
    <clipPath id="clip-MMSI_Icon_KONTAKTE">
      <rect width="48" height="48"/>
    </clipPath>
  </defs>
  <g id="MMSI_Icon_KONTAKTE" clip-path="url(#clip-MMSI_Icon_KONTAKTE)">
    <path id="icon_KONTAKTE" d="M982.3,982.18a3.571,3.571,0,1,1-3.571,3.572,3.575,3.575,0,0,1,3.571-3.572m0-2.143a5.714,5.714,0,1,0,5.714,5.714,5.715,5.715,0,0,0-5.714-5.714Zm-7.8,20a7.8,7.8,0,0,1,15.6,0h-2.143a5.659,5.659,0,0,0-11.314,0Zm15.2-18.428a5.711,5.711,0,0,1-1.681,10.7v-2.2a3.554,3.554,0,0,0,.938-6.453l.741-2.049Zm.527,13.894.61-2.137a7.8,7.8,0,0,1,4.03,6.67h-2.141a5.66,5.66,0,0,0-2.5-4.534Z" transform="translate(-960.683 -966.037)"/>
  </g>
</svg>
