<?xml version="1.0" encoding="UTF-8"?>
<svg id="Ebene_1" data-name="Ebene 1" xmlns="http://www.w3.org/2000/svg" viewBox="0 0 3997.068 1917.624">
  <path id="icon_NOT-VISIBLE" d="M2801.996,1464.252c-1.189-1.238-1.912-2.391-1.912-2.391,0,0,3.369-5.375,7.525-5.375.628,0,1.238.124,1.821.333l-1.322,1.322c-.166-.025-.333-.042-.499-.042-2.182,0-4.385,2.246-5.553,3.763.298.386.664.82,1.079,1.253l-1.138,1.138ZM2813.414,1459.675l-1.139,1.139c.335.363.636.722.886,1.047-1.168,1.516-3.371,3.763-5.553,3.763-.045,0-.09-.007-.135-.008l-1.388,1.388c.492.148,1.001.233,1.523.233,4.156,0,7.525-5.375,7.525-5.375,0,0-.645-1.029-1.719-2.187ZM2813.494,1455.034l-12.912,12.912,1.14,1.14,12.912-12.912-1.14-1.14Z"/>
</svg>