<svg xmlns="http://www.w3.org/2000/svg" xmlns:xlink="http://www.w3.org/1999/xlink" width="48" height="48" viewBox="0 0 48 48">
  <defs>
    <clipPath id="clip-MMSI_Icon_TIMER">
      <rect width="48" height="48"/>
    </clipPath>
  </defs>
  <g id="MMSI_Icon_TIMER" clip-path="url(#clip-MMSI_Icon_TIMER)">
    <path id="icon_TIMER" d="M2809.951,873.167a10,10,0,1,0,10,10A10,10,0,0,0,2809.951,873.167Zm0,17.857a7.857,7.857,0,1,1,7.857-7.857A7.866,7.866,0,0,1,2809.951,891.024Zm0-13.866a5.864,5.864,0,1,0,5.864,5.864A5.865,5.865,0,0,0,2809.951,877.159Zm0,9.587a3.721,3.721,0,1,1,3.721-3.721A3.726,3.726,0,0,1,2809.951,886.746Zm1.622-3.723a1.62,1.62,0,1,1-1.62-1.62A1.62,1.62,0,0,1,2811.573,883.023Z" transform="translate(-2785.951 -859.167)"/>
  </g>
</svg>
