<?xml version="1.0" encoding="UTF-8"?>
<svg id="Ebene_1" data-name="Ebene 1" xmlns="http://www.w3.org/2000/svg" viewBox="0 0 3997.068 1917.624">
  <path id="icon_VISIBLE" d="M2807.608,1388.953c-4.156,0-7.525,5.375-7.525,5.375,0,0,3.369,5.375,7.525,5.375s7.525-5.375,7.525-5.375c0,0-3.369-5.375-7.525-5.375ZM2807.608,1398.09c-2.183,0-4.386-2.247-5.553-3.762,1.168-1.516,3.371-3.763,5.553-3.763s4.386,2.247,5.553,3.762c-1.168,1.516-3.371,3.763-5.553,3.763ZM2809.328,1394.328c0,.95-.77,1.72-1.72,1.72s-1.72-.77-1.72-1.72.77-1.72,1.72-1.72,1.72.77,1.72,1.72Z"/>
</svg>